<svg xmlns="http://www.w3.org/2000/svg" width="25" height="25" viewBox="0 0 25 25" title="" alt="Seguí tu compra" class="sc-jcwpoC kyvWZW"><path fill="currentcolor" d="M10.1 16.039c1.071 0 1.94.886 1.94 1.98 0 1.094-.869 1.981-1.94 1.981-1.073 0-1.942-.887-1.942-1.98 0-1.095.869-1.981 1.941-1.981zm9.964 0c1.072 0 1.941.886 1.941 1.98 0 1.094-.869 1.981-1.941 1.981s-1.941-.887-1.941-1.98c0-1.095.869-1.981 1.941-1.981zM15.956 7c.21 0 .383.165.383.367v6.712c0 .203.172.367.382.367.212 0 .383-.163.383-.367V8.837c0-.203.173-.368.383-.368h2.682c.14 0 .268.072.336.19l1.888 3.26 1.495 1.433c.071.067.111.16.112.259v4.04c0 .203-.172.368-.383.368h-.672c0-.374-.076-.728-.2-1.057-.27-.93-1.07-1.643-2.068-1.829-.205-.046-.416-.076-.636-.076-1.603 0-2.903 1.326-2.903 2.962h-4.226c0-1.636-1.3-2.962-2.904-2.962-1.603 0-2.903 1.326-2.903 2.962h-.547c-.207.005-.378-.16-.383-.368V7.367c0-.202.172-.367.383-.367zM4.05 15.34c.654 0 1.183.49 1.183 1.093 0 .605-.53 1.094-1.183 1.094h-.325c-.654 0-1.183-.487-1.183-1.094 0-.604.529-1.093 1.183-1.093zm.237-3.082c.523 0 .945.49.945 1.094 0 .604-.422 1.092-.945 1.092H2.305c-.521 0-.946-.486-.946-1.092 0-.603.425-1.094.946-1.094zm.053-3.08c.494.001.892.49.892 1.095 0 .602-.398 1.09-.892 1.09l-3.448-.006c-.493 0-.892-.488-.892-1.095 0-.6.399-1.085.892-1.085z" transform="translate(-44 -3) translate(44 3)"></path></svg>