<svg xmlns="http://www.w3.org/2000/svg" width="25" height="25" viewBox="0 0 25 25" title="" alt="Venta telefónica" class="sc-jcwpoC kyvWZW"><path fill="currentcolor" d="M5.554 7.453c.695-.716 1.816-.711 2.506.003l1.505 1.552c.69.718.744 2.014-.276 2.871 1.269 1.57 2.673 3.003 4.105 4.238.83-1.053 2.086-.997 2.78-.284l1.505 1.553c.691.712.697 1.87.002 2.588l-.824.852c-.853.882-2.163.984-3.123.326-3.681-2.508-6.895-5.828-9.322-9.623-.637-.992-.538-2.344.316-3.224zM12.509 4c4.693 0 8.51 3.941 8.51 8.785 0 .202-.159.366-.355.366-.195 0-.354-.164-.354-.366 0-4.44-3.5-8.053-7.8-8.053-.196 0-.355-.164-.355-.366 0-.201.159-.366.354-.366zm0 2.928c3.128 0 5.673 2.628 5.673 5.857 0 .202-.158.366-.354.366-.196 0-.355-.164-.355-.366 0-2.825-2.226-5.125-4.964-5.125-.195 0-.354-.164-.354-.366 0-.201.159-.366.354-.366zm0 2.928c1.565 0 2.837 1.315 2.837 2.929 0 .202-.159.366-.355.366-.195 0-.354-.164-.354-.366 0-1.211-.955-2.196-2.128-2.196-.195 0-.354-.164-.354-.367 0-.2.159-.366.354-.366z" transform="translate(-462 -3) translate(44 3) translate(418)"></path></svg>